<svg width="28" height="51" viewBox="0 0 28 51" fill="none" xmlns="http://www.w3.org/2000/svg">
<path d="M26.7591 46.7323L6.01082 27.2124C5.55577 26.7865 5.30054 26.2116 5.30054 25.6125C5.30054 25.0134 5.55577 24.4385 6.01082 24.0126L26.7546 4.49268C27.2094 4.06414 27.4642 3.48734 27.4642 2.88651C27.4642 2.28568 27.2094 1.70888 26.7546 1.28033C26.5324 1.06931 26.2668 0.9016 25.9736 0.787086C25.6803 0.672577 25.3652 0.613583 25.0469 0.613583C24.7287 0.613583 24.4136 0.672577 24.1203 0.787086C23.827 0.9016 23.5615 1.06931 23.3393 1.28033L2.59553 20.7961C1.23244 22.0815 0.46875 23.811 0.46875 25.6125C0.46875 27.414 1.23244 29.1435 2.59553 30.429L23.3393 49.9447C23.5615 50.1564 23.8274 50.3246 24.1211 50.4395C24.4148 50.5544 24.7304 50.6136 25.0492 50.6136C25.368 50.6136 25.6836 50.5544 25.9773 50.4395C26.271 50.3246 26.5368 50.1564 26.7591 49.9447C27.2139 49.5162 27.4688 48.9394 27.4688 48.3385C27.4688 47.7377 27.2139 47.1609 26.7591 46.7323Z" fill="#E7DDC3"/>
</svg>
