<svg width="57" height="95" viewBox="0 0 57 95" fill="none" xmlns="http://www.w3.org/2000/svg">
<path d="M19.6999 79.9214L33.7667 79.9299L33.7582 94.0299L19.6915 94.0214L19.6999 79.9214ZM29.1257 0.0270666C54.2108 1.07611 65.1208 26.4627 50.1986 45.4887C46.304 50.1864 40.019 53.2846 36.9219 57.2308C33.778 61.1299 33.7752 65.8299 33.7723 70.5299L19.7056 70.5214C19.7103 62.6724 19.7143 56.0454 22.8587 51.3473C25.9562 46.6492 32.241 43.8799 36.1346 40.7803C47.4881 30.2591 44.6837 15.3584 29.1172 14.1271C25.3865 14.1248 21.8077 15.6082 19.1681 18.2509C16.5285 20.8936 15.0443 24.4791 15.042 28.2186L0.975274 28.2102C0.97976 20.7311 3.94812 13.5601 9.22735 8.27472C14.5066 2.98936 21.6642 0.0225914 29.1257 0.0270666Z" fill="#130C07"/>
</svg>
