<svg width="24" height="24" viewBox="0 0 24 24" fill="none" xmlns="http://www.w3.org/2000/svg">
<path d="M20.46 23.64L16.95 20.16L14.31 22.8L13.47 21.96C13.01 21.5 12.78 20.93 12.78 20.25C12.78 19.57 13.01 19 13.47 18.54L18.54 13.47C19 13.01 19.57 12.78 20.25 12.78C20.93 12.78 21.5 13.01 21.96 13.47L22.8 14.31L20.16 16.95L23.64 20.46C23.88 20.7 24 20.98 24 21.3C24 21.62 23.88 21.9 23.64 22.14L22.14 23.64C21.9 23.88 21.62 24 21.3 24C20.98 24 20.7 23.88 20.46 23.64ZM24 4.8L10.38 18.42L10.53 18.54C10.99 19 11.22 19.57 11.22 20.25C11.22 20.93 10.99 21.5 10.53 21.96L9.69 22.8L7.05 20.16L3.54 23.64C3.3 23.88 3.02 24 2.7 24C2.38 24 2.1 23.88 1.86 23.64L0.36 22.14C0.12 21.9 0 21.62 0 21.3C0 20.98 0.12 20.7 0.36 20.46L3.84 16.95L1.2 14.31L2.04 13.47C2.5 13.01 3.07 12.78 3.75 12.78C4.43 12.78 5 13.01 5.46 13.47L5.58 13.62L19.2 0H24V4.8ZM5.94 10.74L0 4.8V0H4.8L10.74 5.94L5.94 10.74Z" fill="#B2913C"/>
</svg>
