<svg width="12" height="12" viewBox="0 0 12 12" fill="none" xmlns="http://www.w3.org/2000/svg">
<path d="M10.23 11.82L8.475 10.08L7.155 11.4L6.735 10.98C6.505 10.75 6.39 10.465 6.39 10.125C6.39 9.785 6.505 9.5 6.735 9.27L9.27 6.735C9.5 6.505 9.785 6.39 10.125 6.39C10.465 6.39 10.75 6.505 10.98 6.735L11.4 7.155L10.08 8.475L11.82 10.23C11.94 10.35 12 10.49 12 10.65C12 10.81 11.94 10.95 11.82 11.07L11.07 11.82C10.95 11.94 10.81 12 10.65 12C10.49 12 10.35 11.94 10.23 11.82ZM12 2.4L5.19 9.21L5.265 9.27C5.495 9.5 5.61 9.785 5.61 10.125C5.61 10.465 5.495 10.75 5.265 10.98L4.845 11.4L3.525 10.08L1.77 11.82C1.65 11.94 1.51 12 1.35 12C1.19 12 1.05 11.94 0.93 11.82L0.18 11.07C0.06 10.95 0 10.81 0 10.65C0 10.49 0.06 10.35 0.18 10.23L1.92 8.475L0.6 7.155L1.02 6.735C1.25 6.505 1.535 6.39 1.875 6.39C2.215 6.39 2.5 6.505 2.73 6.735L2.79 6.81L9.6 0H12V2.4ZM2.97 5.37L0 2.4V0H2.4L5.37 2.97L2.97 5.37Z" fill="#B2913C"/>
</svg>
